<?xml version="1.0" standalone="no"?>
<!DOCTYPE svg PUBLIC "-//W3C//DTD SVG 20010904//EN"
 "http://www.w3.org/TR/2001/REC-SVG-20010904/DTD/svg10.dtd">
<svg version="1.0" xmlns="http://www.w3.org/2000/svg"
 width="93.000000pt" height="70.000000pt" viewBox="0 0 93.000000 70.000000"
 preserveAspectRatio="xMidYMid meet">

<g transform="translate(0.000000,70.000000) scale(0.100000,-0.100000)"
fill="#000000" stroke="none">
<path d="M493 426 c-21 -42 -41 -76 -44 -76 -4 0 -15 20 -25 45 -12 34 -22 45
-38 45 -17 0 -28 -18 -63 -108 -60 -152 -61 -156 -8 -67 26 44 51 84 56 89 4
5 15 -17 24 -48 16 -53 18 -56 48 -56 30 0 34 4 66 80 18 44 36 80 40 80 4 0
13 -19 21 -42 11 -31 20 -43 35 -43 15 0 25 14 43 64 12 35 21 66 18 68 -2 2
-14 -12 -26 -32 -12 -20 -25 -33 -29 -30 -3 4 -13 27 -22 53 -11 34 -22 48
-37 50 -18 3 -28 -10 -59 -72z"/>
</g>
</svg>
